{
	"asset":{
		"generator":"Khronos glTF Blender I/O v5.1.19",
		"version":"2.0"
	},
	"extensionsUsed":[
		"KHR_lights_punctual"
	],
	"extensionsRequired":[
		"KHR_lights_punctual"
	],
	"extensions":{
		"KHR_lights_punctual":{
			"lights":[
				{
					"color":[
						1,
						1,
						1
					],
					"intensity":683,
					"type":"directional",
					"name":"Sun"
				}
			]
		}
	},
	"scene":0,
	"scenes":[
		{
			"name":"Scene",
			"nodes":[
				0,
				3,
				5,
				6
			]
		}
	],
	"nodes":[
		{
			"camera":0,
			"name":"camera_01",
			"rotation":[
				0,
				0.7071068286895752,
				0,
				0.7071068286895752
			],
			"translation":[
				26.458101272583008,
				0.0006694307667203248,
				0.04602546989917755
			]
		},
		{
			"mesh":0,
			"name":"Cube",
			"rotation":[
				0.3535533845424652,
				-0.1464466154575348,
				-0.3535533845424652,
				0.8535534143447876
			],
			"scale":[
				1.086426854133606,
				1.086426854133606,
				1.086426854133606
			]
		},
		{
			"children":[
				1
			],
			"mesh":1,
			"name":"Torus.001",
			"scale":[
				0.5789143443107605,
				0.5789143443107605,
				0.5789143443107605
			]
		},
		{
			"children":[
				2
			],
			"mesh":2,
			"name":"Torus",
			"rotation":[
				0,
				0,
				-0.7071068286895752,
				0.7071068286895752
			]
		},
		{
			"extensions":{
				"KHR_lights_punctual":{
					"light":0
				}
			},
			"name":"Sun",
			"rotation":[
				-0.00746179698035121,
				-0.013192408718168736,
				0.9609262347221375,
				0.276389479637146
			],
			"translation":[
				4.882305802311748e-06,
				0,
				-3.814697265625e-06
			]
		},
		{
			"camera":1,
			"children":[
				4
			],
			"name":"sun_cam",
			"rotation":[
				-0.08247515559196472,
				-0.888131320476532,
				-0.1758553385734558,
				0.41652795672416687
			],
			"translation":[
				-114.39657592773438,
				61.37639617919922,
				-95.36906433105469
			]
		},
		{
			"camera":2,
			"name":"camera_02",
			"rotation":[
				-0.051370374858379364,
				0.9370349645614624,
				0.15624545514583588,
				0.30808135867118835
			],
			"translation":[
				44.32257080078125,
				26.47504425048828,
				-62.122371673583984
			]
		}
	],
	"cameras":[
		{
			"name":"Camera",
			"perspective":{
				"aspectRatio":1.7777777777777777,
				"yfov":0.5631968779732008,
				"zfar":100,
				"znear":0.10000000149011612
			},
			"type":"perspective"
		},
		{
			"name":"sun_cam",
			"orthographic":{
				"xmag":50.42694854736328,
				"ymag":28.365158557891846,
				"zfar":1000,
				"znear":0.10000000149011612
			},
			"type":"orthographic"
		},
		{
			"name":"Camera.001",
			"perspective":{
				"aspectRatio":1.7777777777777777,
				"yfov":0.39959652046304894,
				"zfar":1000,
				"znear":0.10000000149011612
			},
			"type":"perspective"
		}
	],
	"animations":[
		{
			"channels":[
				{
					"sampler":0,
					"target":{
						"node":3,
						"path":"rotation"
					}
				}
			],
			"name":"TorusAction",
			"samplers":[
				{
					"input":11,
					"interpolation":"LINEAR",
					"output":12
				}
			]
		},
		{
			"channels":[
				{
					"sampler":0,
					"target":{
						"node":2,
						"path":"rotation"
					}
				}
			],
			"name":"Torus.001Action",
			"samplers":[
				{
					"input":11,
					"interpolation":"LINEAR",
					"output":13
				}
			]
		},
		{
			"channels":[
				{
					"sampler":0,
					"target":{
						"node":1,
						"path":"rotation"
					}
				}
			],
			"name":"CubeAction",
			"samplers":[
				{
					"input":11,
					"interpolation":"LINEAR",
					"output":14
				}
			]
		}
	],
	"meshes":[
		{
			"name":"Cube.001",
			"primitives":[
				{
					"attributes":{
						"POSITION":0,
						"NORMAL":1,
						"TEXCOORD_0":2
					},
					"indices":3
				}
			]
		},
		{
			"name":"Torus.001",
			"primitives":[
				{
					"attributes":{
						"POSITION":4,
						"NORMAL":5,
						"TEXCOORD_0":6
					},
					"indices":7
				}
			]
		},
		{
			"name":"Torus",
			"primitives":[
				{
					"attributes":{
						"POSITION":8,
						"NORMAL":9,
						"TEXCOORD_0":10
					},
					"indices":7
				}
			]
		}
	],
	"accessors":[
		{
			"bufferView":0,
			"componentType":5126,
			"count":24,
			"max":[
				1,
				1,
				1
			],
			"min":[
				-1,
				-1,
				-1
			],
			"type":"VEC3"
		},
		{
			"bufferView":1,
			"componentType":5126,
			"count":24,
			"type":"VEC3"
		},
		{
			"bufferView":2,
			"componentType":5126,
			"count":24,
			"type":"VEC2"
		},
		{
			"bufferView":3,
			"componentType":5123,
			"count":36,
			"type":"SCALAR"
		},
		{
			"bufferView":4,
			"componentType":5126,
			"count":84,
			"max":[
				4.599999904632568,
				0.5975574851036072,
				4.599999904632568
			],
			"min":[
				-4.599999904632568,
				-0.5975574851036072,
				-4.599999904632568
			],
			"type":"VEC3"
		},
		{
			"bufferView":5,
			"componentType":5126,
			"count":84,
			"type":"VEC3"
		},
		{
			"bufferView":6,
			"componentType":5126,
			"count":84,
			"type":"VEC2"
		},
		{
			"bufferView":7,
			"componentType":5123,
			"count":144,
			"type":"SCALAR"
		},
		{
			"bufferView":8,
			"componentType":5126,
			"count":84,
			"max":[
				4.599999904632568,
				0.5975574851036072,
				4.599999904632568
			],
			"min":[
				-4.599999904632568,
				-0.5975574851036072,
				-4.599999904632568
			],
			"type":"VEC3"
		},
		{
			"bufferView":9,
			"componentType":5126,
			"count":84,
			"type":"VEC3"
		},
		{
			"bufferView":10,
			"componentType":5126,
			"count":84,
			"type":"VEC2"
		},
		{
			"bufferView":11,
			"componentType":5126,
			"count":120,
			"max":[
				2
			],
			"min":[
				0.016666666666666666
			],
			"type":"SCALAR"
		},
		{
			"bufferView":12,
			"componentType":5126,
			"count":120,
			"type":"VEC4"
		},
		{
			"bufferView":13,
			"componentType":5126,
			"count":120,
			"type":"VEC4"
		},
		{
			"bufferView":14,
			"componentType":5126,
			"count":120,
			"type":"VEC4"
		}
	],
	"bufferViews":[
		{
			"buffer":0,
			"byteLength":288,
			"byteOffset":0,
			"target":34962
		},
		{
			"buffer":0,
			"byteLength":288,
			"byteOffset":288,
			"target":34962
		},
		{
			"buffer":0,
			"byteLength":192,
			"byteOffset":576,
			"target":34962
		},
		{
			"buffer":0,
			"byteLength":72,
			"byteOffset":768,
			"target":34963
		},
		{
			"buffer":0,
			"byteLength":1008,
			"byteOffset":840,
			"target":34962
		},
		{
			"buffer":0,
			"byteLength":1008,
			"byteOffset":1848,
			"target":34962
		},
		{
			"buffer":0,
			"byteLength":672,
			"byteOffset":2856,
			"target":34962
		},
		{
			"buffer":0,
			"byteLength":288,
			"byteOffset":3528,
			"target":34963
		},
		{
			"buffer":0,
			"byteLength":1008,
			"byteOffset":3816,
			"target":34962
		},
		{
			"buffer":0,
			"byteLength":1008,
			"byteOffset":4824,
			"target":34962
		},
		{
			"buffer":0,
			"byteLength":672,
			"byteOffset":5832,
			"target":34962
		},
		{
			"buffer":0,
			"byteLength":480,
			"byteOffset":6504
		},
		{
			"buffer":0,
			"byteLength":1920,
			"byteOffset":6984
		},
		{
			"buffer":0,
			"byteLength":1920,
			"byteOffset":8904
		},
		{
			"buffer":0,
			"byteLength":1920,
			"byteOffset":10824
		}
	],
	"buffers":[
		{
			"byteLength":12744,
			"uri":"scene.bin"
		}
	]
}
