{
	"asset":{
		"generator":"Khronos glTF Blender I/O v5.1.19",
		"version":"2.0"
	},
	"scene":0,
	"scenes":[
		{
			"name":"Scene",
			"nodes":[
				0,
				1,
				2,
				3,
				4,
				5,
				6,
				7,
				11,
				12,
				15
			]
		}
	],
	"nodes":[
		{
			"mesh":0,
			"name":"Text"
		},
		{
			"camera":0,
			"name":"Camera",
			"rotation":[
				-0.6622487306594849,
				0.004630742594599724,
				0.004092804156243801,
				0.7492586374282837
			],
			"translation":[
				0.5526384711265564,
				29.058746337890625,
				3.575453281402588
			]
		},
		{
			"mesh":1,
			"name":"Cube",
			"scale":[
				0.2591678500175476,
				0.2591678500175476,
				0.2591678500175476
			],
			"translation":[
				-2.4861302375793457,
				0,
				0
			]
		},
		{
			"mesh":2,
			"name":"Cube.001",
			"scale":[
				0.3672999143600464,
				0.3672999143600464,
				0.3672999143600464
			],
			"translation":[
				-1.3955211639404297,
				0,
				0
			]
		},
		{
			"name":"B\u00e9zierCircle",
			"scale":[
				5.247466564178467,
				5.247466564178467,
				5.247466564178467
			]
		},
		{
			"mesh":3,
			"name":"Sphere",
			"scale":[
				0.5700110793113708,
				0.5700110793113708,
				0.5700110793113708
			],
			"translation":[
				0,
				0,
				5.247466564178467
			]
		},
		{
			"name":"horz_camera_track",
			"translation":[
				6.164620876312256,
				-1.005450963973999,
				4.5053887367248535
			]
		},
		{
			"camera":1,
			"name":"horz_camera",
			"rotation":[
				0.04431150108575821,
				0.5161483883857727,
				-0.026752134785056114,
				0.8549338579177856
			],
			"translation":[
				7.164620876312256,
				-1.005450963973999,
				4.5053887367248535
			]
		},
		{
			"name":"B\u00e9zierCircle.001"
		},
		{
			"mesh":4,
			"name":"Cone",
			"scale":[
				0.22580206394195557,
				0.22580206394195557,
				0.22580206394195557
			],
			"translation":[
				0,
				0,
				0.9646682143211365
			]
		},
		{
			"mesh":5,
			"name":"Icosphere",
			"scale":[
				0.16429126262664795,
				0.16429126262664795,
				0.16429126262664795
			]
		},
		{
			"children":[
				8,
				9,
				10
			],
			"name":"Empty",
			"rotation":[
				0,
				-0.026176949962973595,
				0,
				0.9996573328971863
			],
			"translation":[
				-3.0945827960968018,
				1.4820502996444702,
				0
			]
		},
		{
			"camera":2,
			"name":"Camera.001",
			"rotation":[
				-0.28673475980758667,
				0.3973046541213989,
				0.13221122324466705,
				0.8616567850112915
			],
			"translation":[
				22.94845962524414,
				20.66085433959961,
				18.96521759033203
			]
		},
		{
			"name":"B\u00e9zierCircle.002",
			"rotation":[
				0.7044894695281982,
				0,
				0,
				0.7097144722938538
			],
			"scale":[
				1.9365150928497314,
				0.9999811053276062,
				0.5554175972938538
			]
		},
		{
			"mesh":6,
			"name":"Cube.002",
			"rotation":[
				0.7044894099235535,
				0,
				0,
				0.7097144722938538
			],
			"scale":[
				0.09553030133247375,
				0.09553029388189316,
				0.09553030133247375
			],
			"translation":[
				0,
				0.555402398109436,
				-0.004104137420654297
			]
		},
		{
			"children":[
				13,
				14
			],
			"name":"Empty.001",
			"translation":[
				0,
				0,
				-3.594999074935913
			]
		}
	],
	"cameras":[
		{
			"name":"Camera.004",
			"perspective":{
				"aspectRatio":1.7777777777777777,
				"yfov":0.39959652046304894,
				"zfar":1000,
				"znear":0.10000000149011612
			},
			"type":"perspective"
		},
		{
			"name":"Camera.005",
			"perspective":{
				"aspectRatio":1.7777777777777777,
				"yfov":0.39959652046304894,
				"zfar":1000,
				"znear":0.10000000149011612
			},
			"type":"perspective"
		},
		{
			"name":"Camera.006",
			"perspective":{
				"aspectRatio":1.7777777777777777,
				"yfov":0.39959652046304894,
				"zfar":1000,
				"znear":0.10000000149011612
			},
			"type":"perspective"
		}
	],
	"animations":[
		{
			"channels":[
				{
					"sampler":0,
					"target":{
						"node":0,
						"path":"rotation"
					}
				}
			],
			"name":"TextAction",
			"samplers":[
				{
					"input":26,
					"interpolation":"LINEAR",
					"output":27
				}
			]
		},
		{
			"channels":[
				{
					"sampler":0,
					"target":{
						"node":2,
						"path":"rotation"
					}
				}
			],
			"name":"CubeAction",
			"samplers":[
				{
					"input":28,
					"interpolation":"LINEAR",
					"output":29
				}
			]
		},
		{
			"channels":[
				{
					"sampler":0,
					"target":{
						"node":3,
						"path":"rotation"
					}
				}
			],
			"name":"Cube.001Action.001",
			"samplers":[
				{
					"input":28,
					"interpolation":"LINEAR",
					"output":30
				}
			]
		},
		{
			"channels":[
				{
					"sampler":0,
					"target":{
						"node":5,
						"path":"translation"
					}
				},
				{
					"sampler":1,
					"target":{
						"node":5,
						"path":"scale"
					}
				}
			],
			"name":"SphereAction",
			"samplers":[
				{
					"input":28,
					"interpolation":"LINEAR",
					"output":31
				},
				{
					"input":28,
					"interpolation":"LINEAR",
					"output":32
				}
			]
		},
		{
			"channels":[
				{
					"sampler":0,
					"target":{
						"node":7,
						"path":"translation"
					}
				},
				{
					"sampler":1,
					"target":{
						"node":7,
						"path":"rotation"
					}
				}
			],
			"name":"horz_cameraAction",
			"samplers":[
				{
					"input":33,
					"interpolation":"LINEAR",
					"output":34
				},
				{
					"input":33,
					"interpolation":"LINEAR",
					"output":35
				}
			]
		},
		{
			"channels":[
				{
					"sampler":0,
					"target":{
						"node":11,
						"path":"rotation"
					}
				}
			],
			"name":"EmptyAction",
			"samplers":[
				{
					"input":36,
					"interpolation":"LINEAR",
					"output":37
				}
			]
		},
		{
			"channels":[
				{
					"sampler":0,
					"target":{
						"node":14,
						"path":"translation"
					}
				}
			],
			"name":"Cube.002Action.001",
			"samplers":[
				{
					"input":38,
					"interpolation":"LINEAR",
					"output":39
				}
			]
		}
	],
	"meshes":[
		{
			"name":"Text",
			"primitives":[
				{
					"attributes":{
						"POSITION":0,
						"NORMAL":1,
						"TEXCOORD_0":2
					},
					"indices":3
				}
			]
		},
		{
			"name":"Cube.006",
			"primitives":[
				{
					"attributes":{
						"POSITION":4,
						"NORMAL":5,
						"TEXCOORD_0":6
					},
					"indices":7
				}
			]
		},
		{
			"name":"Cube.007",
			"primitives":[
				{
					"attributes":{
						"POSITION":8,
						"NORMAL":9,
						"TEXCOORD_0":10
					},
					"indices":7
				}
			]
		},
		{
			"name":"Sphere",
			"primitives":[
				{
					"attributes":{
						"POSITION":11,
						"NORMAL":12,
						"TEXCOORD_0":13
					},
					"indices":14
				}
			]
		},
		{
			"name":"Cone.001",
			"primitives":[
				{
					"attributes":{
						"POSITION":15,
						"NORMAL":16,
						"TEXCOORD_0":17
					},
					"indices":18
				}
			]
		},
		{
			"name":"Icosphere",
			"primitives":[
				{
					"attributes":{
						"POSITION":19,
						"NORMAL":20,
						"TEXCOORD_0":21
					},
					"indices":22
				}
			]
		},
		{
			"name":"Cube.008",
			"primitives":[
				{
					"attributes":{
						"POSITION":23,
						"NORMAL":24,
						"TEXCOORD_0":25
					},
					"indices":7
				}
			]
		}
	],
	"accessors":[
		{
			"bufferView":0,
			"componentType":5126,
			"count":564,
			"max":[
				3.0980002880096436,
				0,
				0.009000000543892384
			],
			"min":[
				0.04000000283122063,
				0,
				-0.6910000443458557
			],
			"type":"VEC3"
		},
		{
			"bufferView":1,
			"componentType":5126,
			"count":564,
			"type":"VEC3"
		},
		{
			"bufferView":2,
			"componentType":5126,
			"count":564,
			"type":"VEC2"
		},
		{
			"bufferView":3,
			"componentType":5123,
			"count":1668,
			"type":"SCALAR"
		},
		{
			"bufferView":4,
			"componentType":5126,
			"count":24,
			"max":[
				1,
				1,
				1
			],
			"min":[
				-1,
				-1,
				-1
			],
			"type":"VEC3"
		},
		{
			"bufferView":5,
			"componentType":5126,
			"count":24,
			"type":"VEC3"
		},
		{
			"bufferView":6,
			"componentType":5126,
			"count":24,
			"type":"VEC2"
		},
		{
			"bufferView":7,
			"componentType":5123,
			"count":36,
			"type":"SCALAR"
		},
		{
			"bufferView":8,
			"componentType":5126,
			"count":24,
			"max":[
				1,
				1,
				1
			],
			"min":[
				-1,
				-1,
				-1
			],
			"type":"VEC3"
		},
		{
			"bufferView":9,
			"componentType":5126,
			"count":24,
			"type":"VEC3"
		},
		{
			"bufferView":10,
			"componentType":5126,
			"count":24,
			"type":"VEC2"
		},
		{
			"bufferView":11,
			"componentType":5126,
			"count":1984,
			"max":[
				0.9999997019767761,
				1,
				0.9999993443489075
			],
			"min":[
				-0.9999990463256836,
				-1,
				-1
			],
			"type":"VEC3"
		},
		{
			"bufferView":12,
			"componentType":5126,
			"count":1984,
			"type":"VEC3"
		},
		{
			"bufferView":13,
			"componentType":5126,
			"count":1984,
			"type":"VEC2"
		},
		{
			"bufferView":14,
			"componentType":5123,
			"count":2880,
			"type":"SCALAR"
		},
		{
			"bufferView":15,
			"componentType":5126,
			"count":128,
			"max":[
				1,
				1,
				1
			],
			"min":[
				-1,
				-1,
				-1
			],
			"type":"VEC3"
		},
		{
			"bufferView":16,
			"componentType":5126,
			"count":128,
			"type":"VEC3"
		},
		{
			"bufferView":17,
			"componentType":5126,
			"count":128,
			"type":"VEC2"
		},
		{
			"bufferView":18,
			"componentType":5123,
			"count":186,
			"type":"SCALAR"
		},
		{
			"bufferView":19,
			"componentType":5126,
			"count":240,
			"max":[
				0.9510578513145447,
				1,
				0.9999999403953552
			],
			"min":[
				-0.9510578513145447,
				-1,
				-0.9999999403953552
			],
			"type":"VEC3"
		},
		{
			"bufferView":20,
			"componentType":5126,
			"count":240,
			"type":"VEC3"
		},
		{
			"bufferView":21,
			"componentType":5126,
			"count":240,
			"type":"VEC2"
		},
		{
			"bufferView":22,
			"componentType":5123,
			"count":240,
			"type":"SCALAR"
		},
		{
			"bufferView":23,
			"componentType":5126,
			"count":24,
			"max":[
				1,
				1,
				1
			],
			"min":[
				-1,
				-1,
				-1
			],
			"type":"VEC3"
		},
		{
			"bufferView":24,
			"componentType":5126,
			"count":24,
			"type":"VEC3"
		},
		{
			"bufferView":25,
			"componentType":5126,
			"count":24,
			"type":"VEC2"
		},
		{
			"bufferView":26,
			"componentType":5126,
			"count":48,
			"max":[
				2
			],
			"min":[
				0.041666666666666664
			],
			"type":"SCALAR"
		},
		{
			"bufferView":27,
			"componentType":5126,
			"count":48,
			"type":"VEC4"
		},
		{
			"bufferView":28,
			"componentType":5126,
			"count":203,
			"max":[
				10.416666666666666
			],
			"min":[
				2
			],
			"type":"SCALAR"
		},
		{
			"bufferView":29,
			"componentType":5126,
			"count":203,
			"type":"VEC4"
		},
		{
			"bufferView":30,
			"componentType":5126,
			"count":203,
			"type":"VEC4"
		},
		{
			"bufferView":31,
			"componentType":5126,
			"count":203,
			"type":"VEC3"
		},
		{
			"bufferView":32,
			"componentType":5126,
			"count":203,
			"type":"VEC3"
		},
		{
			"bufferView":33,
			"componentType":5126,
			"count":49,
			"max":[
				4
			],
			"min":[
				2
			],
			"type":"SCALAR"
		},
		{
			"bufferView":34,
			"componentType":5126,
			"count":49,
			"type":"VEC3"
		},
		{
			"bufferView":35,
			"componentType":5126,
			"count":49,
			"type":"VEC4"
		},
		{
			"bufferView":36,
			"componentType":5126,
			"count":144,
			"max":[
				8.416666666666666
			],
			"min":[
				2.4583333333333335
			],
			"type":"SCALAR"
		},
		{
			"bufferView":37,
			"componentType":5126,
			"count":144,
			"type":"VEC4"
		},
		{
			"bufferView":38,
			"componentType":5126,
			"count":125,
			"max":[
				8.5
			],
			"min":[
				3.3333333333333335
			],
			"type":"SCALAR"
		},
		{
			"bufferView":39,
			"componentType":5126,
			"count":125,
			"type":"VEC3"
		}
	],
	"bufferViews":[
		{
			"buffer":0,
			"byteLength":6768,
			"byteOffset":0,
			"target":34962
		},
		{
			"buffer":0,
			"byteLength":6768,
			"byteOffset":6768,
			"target":34962
		},
		{
			"buffer":0,
			"byteLength":4512,
			"byteOffset":13536,
			"target":34962
		},
		{
			"buffer":0,
			"byteLength":3336,
			"byteOffset":18048,
			"target":34963
		},
		{
			"buffer":0,
			"byteLength":288,
			"byteOffset":21384,
			"target":34962
		},
		{
			"buffer":0,
			"byteLength":288,
			"byteOffset":21672,
			"target":34962
		},
		{
			"buffer":0,
			"byteLength":192,
			"byteOffset":21960,
			"target":34962
		},
		{
			"buffer":0,
			"byteLength":72,
			"byteOffset":22152,
			"target":34963
		},
		{
			"buffer":0,
			"byteLength":288,
			"byteOffset":22224,
			"target":34962
		},
		{
			"buffer":0,
			"byteLength":288,
			"byteOffset":22512,
			"target":34962
		},
		{
			"buffer":0,
			"byteLength":192,
			"byteOffset":22800,
			"target":34962
		},
		{
			"buffer":0,
			"byteLength":23808,
			"byteOffset":22992,
			"target":34962
		},
		{
			"buffer":0,
			"byteLength":23808,
			"byteOffset":46800,
			"target":34962
		},
		{
			"buffer":0,
			"byteLength":15872,
			"byteOffset":70608,
			"target":34962
		},
		{
			"buffer":0,
			"byteLength":5760,
			"byteOffset":86480,
			"target":34963
		},
		{
			"buffer":0,
			"byteLength":1536,
			"byteOffset":92240,
			"target":34962
		},
		{
			"buffer":0,
			"byteLength":1536,
			"byteOffset":93776,
			"target":34962
		},
		{
			"buffer":0,
			"byteLength":1024,
			"byteOffset":95312,
			"target":34962
		},
		{
			"buffer":0,
			"byteLength":372,
			"byteOffset":96336,
			"target":34963
		},
		{
			"buffer":0,
			"byteLength":2880,
			"byteOffset":96708,
			"target":34962
		},
		{
			"buffer":0,
			"byteLength":2880,
			"byteOffset":99588,
			"target":34962
		},
		{
			"buffer":0,
			"byteLength":1920,
			"byteOffset":102468,
			"target":34962
		},
		{
			"buffer":0,
			"byteLength":480,
			"byteOffset":104388,
			"target":34963
		},
		{
			"buffer":0,
			"byteLength":288,
			"byteOffset":104868,
			"target":34962
		},
		{
			"buffer":0,
			"byteLength":288,
			"byteOffset":105156,
			"target":34962
		},
		{
			"buffer":0,
			"byteLength":192,
			"byteOffset":105444,
			"target":34962
		},
		{
			"buffer":0,
			"byteLength":192,
			"byteOffset":105636
		},
		{
			"buffer":0,
			"byteLength":768,
			"byteOffset":105828
		},
		{
			"buffer":0,
			"byteLength":812,
			"byteOffset":106596
		},
		{
			"buffer":0,
			"byteLength":3248,
			"byteOffset":107408
		},
		{
			"buffer":0,
			"byteLength":3248,
			"byteOffset":110656
		},
		{
			"buffer":0,
			"byteLength":2436,
			"byteOffset":113904
		},
		{
			"buffer":0,
			"byteLength":2436,
			"byteOffset":116340
		},
		{
			"buffer":0,
			"byteLength":196,
			"byteOffset":118776
		},
		{
			"buffer":0,
			"byteLength":588,
			"byteOffset":118972
		},
		{
			"buffer":0,
			"byteLength":784,
			"byteOffset":119560
		},
		{
			"buffer":0,
			"byteLength":576,
			"byteOffset":120344
		},
		{
			"buffer":0,
			"byteLength":2304,
			"byteOffset":120920
		},
		{
			"buffer":0,
			"byteLength":500,
			"byteOffset":123224
		},
		{
			"buffer":0,
			"byteLength":1500,
			"byteOffset":123724
		}
	],
	"buffers":[
		{
			"byteLength":125224,
			"uri":"scene.bin"
		}
	]
}
