{
	"asset":{
		"generator":"Khronos glTF Blender I/O v5.1.19",
		"version":"2.0"
	},
	"scene":0,
	"scenes":[
		{
			"name":"Scene",
			"nodes":[
				0,
				1,
				2,
				5,
				9,
				10,
				11,
				12,
				13
			]
		}
	],
	"nodes":[
		{
			"camera":0,
			"name":"front",
			"rotation":[
				-0.7071068286895752,
				0,
				0,
				0.7071068286895752
			],
			"translation":[
				-0.020693248137831688,
				26.479461669921875,
				0.04602546989917755
			]
		},
		{
			"mesh":0,
			"name":"some_text",
			"rotation":[
				0.02457427605986595,
				0,
				0,
				0.9996979832649231
			],
			"translation":[
				0,
				3.1701579093933105,
				-0.42566394805908203
			]
		},
		{
			"camera":1,
			"name":"side",
			"rotation":[
				-0.4461686909198761,
				-0.3822177052497864,
				-0.21889854967594147,
				0.7790549397468567
			],
			"translation":[
				-18.332250595092773,
				39.46528244018555,
				14.215839385986328
			]
		},
		{
			"mesh":1,
			"name":"Cube",
			"translation":[
				2.07434344291687,
				1.63087797164917,
				-3.130180597305298
			]
		},
		{
			"mesh":2,
			"name":"Cube.001",
			"rotation":[
				0.008726549334824085,
				0,
				0,
				0.9999619126319885
			],
			"scale":[
				0.36734434962272644,
				0.36734434962272644,
				0.36734437942504883
			],
			"translation":[
				2.074343681335449,
				1.6662863492965698,
				-4.721045017242432
			]
		},
		{
			"children":[
				3,
				4
			],
			"name":"Empty.001",
			"rotation":[
				0.05819350481033325,
				0.03347765654325485,
				-0.39038240909576416,
				0.9182016849517822
			],
			"translation":[
				-2.9656789302825928,
				3.1701579093933105,
				0.8739011287689209
			]
		},
		{
			"mesh":3,
			"name":"Cone",
			"rotation":[
				0.49148789048194885,
				0.30632808804512024,
				-0.50165194272995,
				0.6426104307174683
			],
			"translation":[
				1.0801091194152832,
				-6.9613118171691895,
				2.697361707687378
			]
		},
		{
			"mesh":4,
			"name":"Cube.002",
			"rotation":[
				0.5651088356971741,
				0,
				0,
				0.8250163793563843
			],
			"translation":[
				-11.991704940795898,
				-6.928830146789551,
				2.6847755908966064
			]
		},
		{
			"mesh":5,
			"name":"Torus.001",
			"rotation":[
				0,
				0,
				-0.13917310535907745,
				0.9902681112289429
			],
			"translation":[
				2.614600658416748,
				0,
				6.00980281829834
			]
		},
		{
			"children":[
				6,
				7,
				8
			],
			"name":"Empty",
			"rotation":[
				-0.5651088356971741,
				0,
				0,
				0.8250163793563843
			],
			"translation":[
				5.035585403442383,
				0,
				-4.136000633239746
			]
		},
		{
			"mesh":6,
			"name":"Cube.003",
			"translation":[
				-3.6289639472961426,
				0,
				3.336939811706543
			]
		},
		{
			"mesh":7,
			"name":"Cube.004",
			"translation":[
				0,
				0,
				3.3501949310302734
			]
		},
		{
			"name":"B\u00e9zierCircle",
			"scale":[
				16.27242660522461,
				16.27242660522461,
				16.27242660522461
			]
		},
		{
			"camera":2,
			"name":"RotatingCamera",
			"rotation":[
				0.08588814735412598,
				0.01079486683011055,
				-0.0009306449210271239,
				0.9962458610534668
			],
			"translation":[
				0,
				0,
				16.27242660522461
			]
		}
	],
	"cameras":[
		{
			"name":"Camera",
			"perspective":{
				"aspectRatio":1.7777777777777777,
				"yfov":0.39959652046304894,
				"zfar":100,
				"znear":0.10000000149011612
			},
			"type":"perspective"
		},
		{
			"name":"Camera.001",
			"perspective":{
				"aspectRatio":1.7777777777777777,
				"yfov":0.39959652046304894,
				"zfar":1000,
				"znear":0.10000000149011612
			},
			"type":"perspective"
		},
		{
			"name":"Camera.003",
			"perspective":{
				"aspectRatio":1.7777777777777777,
				"yfov":0.39959652046304894,
				"zfar":1000,
				"znear":0.10000000149011612
			},
			"type":"perspective"
		}
	],
	"animations":[
		{
			"channels":[
				{
					"sampler":0,
					"target":{
						"node":4,
						"path":"rotation"
					}
				}
			],
			"name":"Cube.001Action",
			"samplers":[
				{
					"input":28,
					"interpolation":"LINEAR",
					"output":29
				}
			]
		},
		{
			"channels":[
				{
					"sampler":0,
					"target":{
						"node":6,
						"path":"rotation"
					}
				}
			],
			"name":"ConeAction",
			"samplers":[
				{
					"input":30,
					"interpolation":"LINEAR",
					"output":31
				}
			]
		},
		{
			"channels":[
				{
					"sampler":0,
					"target":{
						"node":7,
						"path":"rotation"
					}
				}
			],
			"name":"Cube.002Action",
			"samplers":[
				{
					"input":32,
					"interpolation":"LINEAR",
					"output":33
				}
			]
		},
		{
			"channels":[
				{
					"sampler":0,
					"target":{
						"node":8,
						"path":"rotation"
					}
				}
			],
			"name":"Torus.001Action",
			"samplers":[
				{
					"input":34,
					"interpolation":"LINEAR",
					"output":35
				}
			]
		},
		{
			"channels":[
				{
					"sampler":0,
					"target":{
						"node":10,
						"path":"rotation"
					}
				}
			],
			"name":"Cube.003Action",
			"samplers":[
				{
					"input":32,
					"interpolation":"LINEAR",
					"output":36
				}
			]
		},
		{
			"channels":[
				{
					"sampler":0,
					"target":{
						"node":11,
						"path":"rotation"
					}
				}
			],
			"name":"Cube.004Action",
			"samplers":[
				{
					"input":32,
					"interpolation":"LINEAR",
					"output":37
				}
			]
		},
		{
			"channels":[
				{
					"sampler":0,
					"target":{
						"node":13,
						"path":"translation"
					}
				},
				{
					"sampler":1,
					"target":{
						"node":13,
						"path":"rotation"
					}
				}
			],
			"name":"RotatingCameraAction",
			"samplers":[
				{
					"input":38,
					"interpolation":"LINEAR",
					"output":39
				},
				{
					"input":38,
					"interpolation":"LINEAR",
					"output":40
				}
			]
		}
	],
	"meshes":[
		{
			"name":"Scene",
			"primitives":[
				{
					"attributes":{
						"POSITION":0,
						"NORMAL":1,
						"TEXCOORD_0":2
					},
					"indices":3
				}
			]
		},
		{
			"name":"Cube.001",
			"primitives":[
				{
					"attributes":{
						"POSITION":4,
						"NORMAL":5,
						"TEXCOORD_0":6
					},
					"indices":7
				}
			]
		},
		{
			"name":"Cube.002",
			"primitives":[
				{
					"attributes":{
						"POSITION":8,
						"NORMAL":9,
						"TEXCOORD_0":10
					},
					"indices":7
				}
			]
		},
		{
			"name":"Cone",
			"primitives":[
				{
					"attributes":{
						"POSITION":11,
						"NORMAL":12,
						"TEXCOORD_0":13
					},
					"indices":14
				}
			]
		},
		{
			"name":"Cube.003",
			"primitives":[
				{
					"attributes":{
						"POSITION":15,
						"NORMAL":16,
						"TEXCOORD_0":17
					},
					"indices":7
				}
			]
		},
		{
			"name":"Torus.001",
			"primitives":[
				{
					"attributes":{
						"POSITION":18,
						"NORMAL":19,
						"TEXCOORD_0":20
					},
					"indices":21
				}
			]
		},
		{
			"name":"Cube.004",
			"primitives":[
				{
					"attributes":{
						"POSITION":22,
						"NORMAL":23,
						"TEXCOORD_0":24
					},
					"indices":7
				}
			]
		},
		{
			"name":"Cube.005",
			"primitives":[
				{
					"attributes":{
						"POSITION":25,
						"NORMAL":26,
						"TEXCOORD_0":27
					},
					"indices":7
				}
			]
		}
	],
	"accessors":[
		{
			"bufferView":0,
			"componentType":5126,
			"count":564,
			"max":[
				3.0980002880096436,
				0,
				0.009000000543892384
			],
			"min":[
				0.04000000283122063,
				0,
				-0.6910000443458557
			],
			"type":"VEC3"
		},
		{
			"bufferView":1,
			"componentType":5126,
			"count":564,
			"type":"VEC3"
		},
		{
			"bufferView":2,
			"componentType":5126,
			"count":564,
			"type":"VEC2"
		},
		{
			"bufferView":3,
			"componentType":5123,
			"count":1668,
			"type":"SCALAR"
		},
		{
			"bufferView":4,
			"componentType":5126,
			"count":24,
			"max":[
				1,
				1,
				1
			],
			"min":[
				-1,
				-1,
				-1
			],
			"type":"VEC3"
		},
		{
			"bufferView":5,
			"componentType":5126,
			"count":24,
			"type":"VEC3"
		},
		{
			"bufferView":6,
			"componentType":5126,
			"count":24,
			"type":"VEC2"
		},
		{
			"bufferView":7,
			"componentType":5123,
			"count":36,
			"type":"SCALAR"
		},
		{
			"bufferView":8,
			"componentType":5126,
			"count":24,
			"max":[
				1,
				1,
				1
			],
			"min":[
				-1,
				-1,
				-1
			],
			"type":"VEC3"
		},
		{
			"bufferView":9,
			"componentType":5126,
			"count":24,
			"type":"VEC3"
		},
		{
			"bufferView":10,
			"componentType":5126,
			"count":24,
			"type":"VEC2"
		},
		{
			"bufferView":11,
			"componentType":5126,
			"count":128,
			"max":[
				1,
				1,
				1
			],
			"min":[
				-1,
				-1,
				-1
			],
			"type":"VEC3"
		},
		{
			"bufferView":12,
			"componentType":5126,
			"count":128,
			"type":"VEC3"
		},
		{
			"bufferView":13,
			"componentType":5126,
			"count":128,
			"type":"VEC2"
		},
		{
			"bufferView":14,
			"componentType":5123,
			"count":186,
			"type":"SCALAR"
		},
		{
			"bufferView":15,
			"componentType":5126,
			"count":24,
			"max":[
				1,
				1,
				1
			],
			"min":[
				-1,
				-1,
				-1
			],
			"type":"VEC3"
		},
		{
			"bufferView":16,
			"componentType":5126,
			"count":24,
			"type":"VEC3"
		},
		{
			"bufferView":17,
			"componentType":5126,
			"count":24,
			"type":"VEC2"
		},
		{
			"bufferView":18,
			"componentType":5126,
			"count":2304,
			"max":[
				1.25,
				0.25,
				1.25
			],
			"min":[
				-1.25,
				-0.25,
				-1.25
			],
			"type":"VEC3"
		},
		{
			"bufferView":19,
			"componentType":5126,
			"count":2304,
			"type":"VEC3"
		},
		{
			"bufferView":20,
			"componentType":5126,
			"count":2304,
			"type":"VEC2"
		},
		{
			"bufferView":21,
			"componentType":5123,
			"count":3456,
			"type":"SCALAR"
		},
		{
			"bufferView":22,
			"componentType":5126,
			"count":24,
			"max":[
				1,
				1,
				1
			],
			"min":[
				-1,
				-1,
				-1
			],
			"type":"VEC3"
		},
		{
			"bufferView":23,
			"componentType":5126,
			"count":24,
			"type":"VEC3"
		},
		{
			"bufferView":24,
			"componentType":5126,
			"count":24,
			"type":"VEC2"
		},
		{
			"bufferView":25,
			"componentType":5126,
			"count":24,
			"max":[
				1,
				1,
				1
			],
			"min":[
				-1,
				-1,
				-1
			],
			"type":"VEC3"
		},
		{
			"bufferView":26,
			"componentType":5126,
			"count":24,
			"type":"VEC3"
		},
		{
			"bufferView":27,
			"componentType":5126,
			"count":24,
			"type":"VEC2"
		},
		{
			"bufferView":28,
			"componentType":5126,
			"count":98,
			"max":[
				4.125
			],
			"min":[
				0.08333333333333333
			],
			"type":"SCALAR"
		},
		{
			"bufferView":29,
			"componentType":5126,
			"count":98,
			"type":"VEC4"
		},
		{
			"bufferView":30,
			"componentType":5126,
			"count":116,
			"max":[
				4.833333333333333
			],
			"min":[
				0.041666666666666664
			],
			"type":"SCALAR"
		},
		{
			"bufferView":31,
			"componentType":5126,
			"count":116,
			"type":"VEC4"
		},
		{
			"bufferView":32,
			"componentType":5126,
			"count":72,
			"max":[
				3.0416666666666665
			],
			"min":[
				0.08333333333333333
			],
			"type":"SCALAR"
		},
		{
			"bufferView":33,
			"componentType":5126,
			"count":72,
			"type":"VEC4"
		},
		{
			"bufferView":34,
			"componentType":5126,
			"count":104,
			"max":[
				4.541666666666667
			],
			"min":[
				0.25
			],
			"type":"SCALAR"
		},
		{
			"bufferView":35,
			"componentType":5126,
			"count":104,
			"type":"VEC4"
		},
		{
			"bufferView":36,
			"componentType":5126,
			"count":72,
			"type":"VEC4"
		},
		{
			"bufferView":37,
			"componentType":5126,
			"count":72,
			"type":"VEC4"
		},
		{
			"bufferView":38,
			"componentType":5126,
			"count":123,
			"max":[
				5.125
			],
			"min":[
				0.041666666666666664
			],
			"type":"SCALAR"
		},
		{
			"bufferView":39,
			"componentType":5126,
			"count":123,
			"type":"VEC3"
		},
		{
			"bufferView":40,
			"componentType":5126,
			"count":123,
			"type":"VEC4"
		}
	],
	"bufferViews":[
		{
			"buffer":0,
			"byteLength":6768,
			"byteOffset":0,
			"target":34962
		},
		{
			"buffer":0,
			"byteLength":6768,
			"byteOffset":6768,
			"target":34962
		},
		{
			"buffer":0,
			"byteLength":4512,
			"byteOffset":13536,
			"target":34962
		},
		{
			"buffer":0,
			"byteLength":3336,
			"byteOffset":18048,
			"target":34963
		},
		{
			"buffer":0,
			"byteLength":288,
			"byteOffset":21384,
			"target":34962
		},
		{
			"buffer":0,
			"byteLength":288,
			"byteOffset":21672,
			"target":34962
		},
		{
			"buffer":0,
			"byteLength":192,
			"byteOffset":21960,
			"target":34962
		},
		{
			"buffer":0,
			"byteLength":72,
			"byteOffset":22152,
			"target":34963
		},
		{
			"buffer":0,
			"byteLength":288,
			"byteOffset":22224,
			"target":34962
		},
		{
			"buffer":0,
			"byteLength":288,
			"byteOffset":22512,
			"target":34962
		},
		{
			"buffer":0,
			"byteLength":192,
			"byteOffset":22800,
			"target":34962
		},
		{
			"buffer":0,
			"byteLength":1536,
			"byteOffset":22992,
			"target":34962
		},
		{
			"buffer":0,
			"byteLength":1536,
			"byteOffset":24528,
			"target":34962
		},
		{
			"buffer":0,
			"byteLength":1024,
			"byteOffset":26064,
			"target":34962
		},
		{
			"buffer":0,
			"byteLength":372,
			"byteOffset":27088,
			"target":34963
		},
		{
			"buffer":0,
			"byteLength":288,
			"byteOffset":27460,
			"target":34962
		},
		{
			"buffer":0,
			"byteLength":288,
			"byteOffset":27748,
			"target":34962
		},
		{
			"buffer":0,
			"byteLength":192,
			"byteOffset":28036,
			"target":34962
		},
		{
			"buffer":0,
			"byteLength":27648,
			"byteOffset":28228,
			"target":34962
		},
		{
			"buffer":0,
			"byteLength":27648,
			"byteOffset":55876,
			"target":34962
		},
		{
			"buffer":0,
			"byteLength":18432,
			"byteOffset":83524,
			"target":34962
		},
		{
			"buffer":0,
			"byteLength":6912,
			"byteOffset":101956,
			"target":34963
		},
		{
			"buffer":0,
			"byteLength":288,
			"byteOffset":108868,
			"target":34962
		},
		{
			"buffer":0,
			"byteLength":288,
			"byteOffset":109156,
			"target":34962
		},
		{
			"buffer":0,
			"byteLength":192,
			"byteOffset":109444,
			"target":34962
		},
		{
			"buffer":0,
			"byteLength":288,
			"byteOffset":109636,
			"target":34962
		},
		{
			"buffer":0,
			"byteLength":288,
			"byteOffset":109924,
			"target":34962
		},
		{
			"buffer":0,
			"byteLength":192,
			"byteOffset":110212,
			"target":34962
		},
		{
			"buffer":0,
			"byteLength":392,
			"byteOffset":110404
		},
		{
			"buffer":0,
			"byteLength":1568,
			"byteOffset":110796
		},
		{
			"buffer":0,
			"byteLength":464,
			"byteOffset":112364
		},
		{
			"buffer":0,
			"byteLength":1856,
			"byteOffset":112828
		},
		{
			"buffer":0,
			"byteLength":288,
			"byteOffset":114684
		},
		{
			"buffer":0,
			"byteLength":1152,
			"byteOffset":114972
		},
		{
			"buffer":0,
			"byteLength":416,
			"byteOffset":116124
		},
		{
			"buffer":0,
			"byteLength":1664,
			"byteOffset":116540
		},
		{
			"buffer":0,
			"byteLength":1152,
			"byteOffset":118204
		},
		{
			"buffer":0,
			"byteLength":1152,
			"byteOffset":119356
		},
		{
			"buffer":0,
			"byteLength":492,
			"byteOffset":120508
		},
		{
			"buffer":0,
			"byteLength":1476,
			"byteOffset":121000
		},
		{
			"buffer":0,
			"byteLength":1968,
			"byteOffset":122476
		}
	],
	"buffers":[
		{
			"byteLength":124444,
			"uri":"scene2.bin"
		}
	]
}
